<svg xml:space="preserve" style="enable-background:new 0 0 1024 1024;" viewBox="0 0 1024 1024" y="0px" x="0px" xmlns:xlink="http://www.w3.org/1999/xlink" xmlns="http://www.w3.org/2000/svg" id="图层_1" version="1.1">
<style type="text/css">
	.st0{fill:url(#SVGID_1_);}
	.st1{fill:url(#SVGID_2_);}
	.st2{fill:url(#SVGID_3_);}
	.st3{fill:url(#SVGID_4_);}
	.st4{fill:#FFFFFF;}
	.st5{clip-path:url(#SVGID_6_);}
	.st6{fill:#21B9FF;}
	.st7{fill:#57BC9A;}
	.st8{fill:url(#SVGID_7_);}
	.st9{fill:url(#SVGID_8_);}
	.st10{fill:url(#SVGID_9_);}
	.st11{fill:url(#SVGID_10_);}
	.st12{fill:url(#SVGID_11_);}
	.st13{fill:url(#SVGID_12_);}
	.st14{fill:url(#SVGID_13_);}
	.st15{fill:url(#SVGID_14_);}
	.st16{fill:url(#SVGID_15_);}
	.st17{fill:url(#SVGID_16_);}
	.st18{fill:url(#SVGID_17_);}
	.st19{fill:url(#SVGID_18_);}
	.st20{fill:url(#SVGID_19_);}
	.st21{fill:url(#SVGID_20_);}
	.st22{fill:url(#SVGID_21_);}
	.st23{fill:url(#SVGID_22_);}
	.st24{fill:url(#SVGID_23_);}
</style>
<g>
	<linearGradient y2="497.7538" x2="949.0297" y1="497.7538" x1="77.5974" gradientUnits="userSpaceOnUse" id="SVGID_1_">
		<stop style="stop-color:#DAE2EF" offset="0"></stop>
		<stop style="stop-color:#F2F2F2" offset="1"></stop>
	</linearGradient>
	<circle r="435.7" cy="497.8" cx="513.3" class="st0"></circle>
	<linearGradient y2="744.4509" x2="258.1418" y1="744.4509" x1="87.093" gradientUnits="userSpaceOnUse" id="SVGID_2_">
		<stop style="stop-color:#C7D3DD" offset="0"></stop>
		<stop style="stop-color:#B6C4CE" offset="1"></stop>
	</linearGradient>
	<path d="M258.1,796.5c-0.1-8.8-13.7-13.4-16.7-11.4c-2.6,1.7-5.1,11.3-5.3,21.1c-5.2-8-10.7-15.7-16.5-23.1
		c3.2-2.4,15.5-12.5,12.4-22c-3.6-10.9-20.8-5.4-22.3-3.3c-1.6,2.3-1.9,7.7,3.3,17c-5.4-6.6-10.9-13-16.5-19
		c4.2-2.8,14.5-10.6,14.2-20.2c-0.4-12-18.6-9.8-22.3-5.2c-2.6,3.3,0.3,13.2,3.2,20.1c-6.7-7.1-13.3-13.7-19.7-19.8
		c5.4-4.7,22.8-21.3,12.7-28.4c-11.9-8.4-21.8-2.2-23.1,0.5c-2.3,4.8,0.5,14.7,4.4,22.3c-7.9-7.3-15.2-13.7-21.7-19.1
		c5.7-5.2,23.9-23.6,13-32.4c-12.8-10.3-21.8-0.6-22,5.6c-0.1,4.6,3.9,17.8,6.1,24.4c-10.9-9.1-18.7-14.8-20.9-16.4
		c0.2-7.8,0.3-33.8-6.6-40.8c-8.1-8.3-31,7.9-26.3,19.7c4.5,11.1,19.4,19.6,30.7,22.8l-0.3,0.4c0.2,0.2,5.5,3.9,13.8,10.6
		c-7.2-2.2-20-5.1-25.2-0.1c-7.3,7.2,7.2,22.4,10.8,23.9c3.5,1.4,11.3-3.2,18.7-20.3c6.7,5.4,14.8,12.3,23.7,20.4
		c-7.1-0.7-26.5-2.1-28.4,3.3c-2.3,6.7,4.9,23,11.7,23.4c6.7,0.4,11.7-3.4,18.8-24.9c6.1,5.6,12.6,11.9,19.2,18.5
		c-6.4-1.1-22.6-2.9-25.1,5.3c-3,10.3,9.6,23.4,15.7,22c5.9-1.3,8.6-6.5,11.7-25c8.9,9.2,18.1,19.2,26.8,29.9
		c-5.5-1.4-19.6-4.8-23.2-1.5c-4.4,4,1.5,16.9,8.4,20.7c5.9,3.2,14-12.4,16.3-17.2c5.6,6.9,11.1,14.2,16.2,21.6
		c-5.8-0.7-18.3-1.6-21.1,3c-3.6,6,3.8,19.4,10.4,19.6c5.3,0.2,10.6-13.7,12.7-19.6c9,13.3,17.1,27.4,23.4,41.9l2.9-1.2
		c-5-11.6-11.1-22.8-17.9-33.7C244.2,808.3,258.2,803.5,258.1,796.5z" class="st1"></path>
	<linearGradient y2="630.7075" x2="1022.453" y1="630.7075" x1="693.5446" gradientUnits="userSpaceOnUse" id="SVGID_3_">
		<stop style="stop-color:#C7D3DD" offset="0"></stop>
		<stop style="stop-color:#B6C4CE" offset="1"></stop>
	</linearGradient>
	<path d="M693.7,769.1c-2.6-19.3,25.4-33.5,32.6-30.2c6.3,2.9,14.7,23,18.3,44.2c8.7-19,18.2-37.6,28.3-55.6
		c-7.7-4.2-37.8-22.1-34.1-43.9c4.2-25,43.5-18.5,47.5-14.4c4.3,4.4,6.7,16.1-1.7,38.1c9.6-16.1,19.6-31.7,29.6-46.7
		c-10.1-4.7-35-18.3-37.4-39.2c-3-26.3,37.3-27.4,46.8-18.5c6.8,6.3,3.6,28.7-0.5,44.7c12.2-17.5,24.5-34.1,36.4-49.4
		c-13.2-8.5-56.6-38.8-36.8-57.8c23.2-22.2,46.8-11.9,50.5-6.4c6.5,9.7,3.6,32.2-2.4,49.9c14.7-18.4,28.7-34.8,40.9-48.6
		c-14-9.6-59.7-43.5-38.8-66.2c24.5-26.6,47.1-8.4,49.6,5c1.8,9.9-2.8,40-5.3,55c20.8-23.2,35.9-38.2,40.2-42.4
		c-3-17-11.6-73.4,1-90.9c14.9-20.7,70,7.1,63.6,34.3c-6.1,25.6-35.9,49-59.3,59.6l0.7,0.7c-0.4,0.4-10.6,10.3-26.6,27.5
		c14.9-7.1,41.9-17.6,54.7-8.3c18.3,13.3-8.4,51.1-15.7,55.4c-7.1,4.2-25.7-3.3-47.2-38.1c-12.7,14-28.1,31.5-44.8,52
		c15.2-3.8,57.1-13.2,62.9-2c7.2,13.7-3.1,51.7-17.9,54.8c-14.4,3-26.6-3.5-48.9-48c-11.5,14.3-23.6,29.9-35.8,46.6
		c13.6-4.4,48.3-13.8,56.2,3.4c10,21.5-13.3,54-27,53c-13.3-1-20.8-11.4-33.5-50.5c-16.5,22.8-33,47.6-48.6,73.8
		c11.6-4.8,41.1-16.7,49.9-10.8c10.9,7.3,2.3,37.3-11.6,47.7c-11.7,8.8-34.4-22.4-41.1-32.1c-10,16.9-19.5,34.4-28.3,52.3
		c12.3-3.4,39.4-9.5,46.8-0.4c9.7,11.9-1.9,43.4-16.3,46.1c-11.4,2.1-27.6-26.4-33.9-38.5c-15.3,32-28.2,65.1-37.2,98.7l-6.7-1.8
		c7.1-26.7,16.8-53.2,28.1-79.1C728,790.3,695.8,784.5,693.7,769.1z" class="st2"></path>
	<g>
		<linearGradient y2="647.6945" x2="315.708" y1="647.6945" x1="146.7089" gradientUnits="userSpaceOnUse" id="SVGID_4_">
			<stop style="stop-color:#B7C5CE" offset="0"></stop>
			<stop style="stop-color:#B6C4CE" offset="1"></stop>
		</linearGradient>
		<path d="M163.8,422c-4-0.1-6.8,4-5.3,7.7c3.6,8.9,8.6,30.2-3.7,66.1c-16.8,49-7.7,110.8,30.9,157.2
			c38.7,46.4,33.5,155.9,65.7,185.6c32.2,29.6,38.7,34.8,38.7,34.8s2.6-46.4,9-70.9c6.4-24.5,36.1-72.2-3.9-125
			c-39.9-52.8-61.9-72.2-55.4-113.4C245.7,526.5,192.7,422.6,163.8,422z" class="st3"></path>
		<g>
			<path d="M159.3,426.2c4.2,2.6,8,6.1,11.4,9.7c3.4,3.6,6.5,7.6,9.2,11.8c5.5,8.4,9.6,17.6,12.6,27.2
				c1.5,4.8,2.7,9.6,3.6,14.6c0.3,1.2,0.5,2.5,0.7,3.7c0.2,1.2,0.4,2.5,0.6,3.7c0.3,2.5,0.7,5,0.9,7.5c1,10,0.8,20,1,30
				c0.3,10,0.7,19.9,1.5,29.9c0.8,9.9,2,19.8,3.6,29.7c1.7,9.8,3.8,19.6,6.8,29.1c3,9.5,6.8,18.7,11.8,27.3
				c4.8,8.7,11.4,16.2,17.8,23.9c6.4,7.7,12.7,15.6,17.8,24.2c5.2,8.6,9.3,17.9,12.1,27.5c2.8,9.7,4.2,19.7,4.5,29.7
				c0.1,2.5,0.1,5,0.1,7.5l-0.3,7.5c-0.1,5-0.4,10-0.3,14.9c-0.1,10,0.6,19.9,1.6,29.9c1,9.9,2.6,19.8,4.8,29.5
				c0.6,2.4,1.2,4.9,1.8,7.3c0.7,2.4,1.3,4.8,2,7.2c1.4,4.8,3,9.5,5,14.1c-2-4.6-3.7-9.3-5.2-14.1c-0.8-2.4-1.4-4.8-2.1-7.2
				c-0.7-2.4-1.3-4.8-1.9-7.3c-2.3-9.7-4.1-19.6-5.2-29.5c-1.1-9.9-1.8-19.9-1.9-29.9c-0.2-5,0.1-10,0.2-15l0.2-7.5
				c0-2.5,0-5-0.1-7.5c-0.4-9.9-1.9-19.8-4.6-29.4c-2.7-9.5-6.8-18.7-12-27.2c-5.1-8.5-11.3-16.3-17.8-24c-3.2-3.8-6.5-7.6-9.6-11.6
				c-1.6-2-3-4-4.5-6.1l-2-3.2l-1-1.6l-0.9-1.6c-5-8.7-8.9-18.1-11.9-27.6c-3-9.6-5.1-19.4-6.8-29.3c-1.6-9.9-2.8-19.8-3.6-29.8
				c-0.4-5-0.7-10-0.9-15c-0.2-5-0.3-10-0.5-15c-0.1-10,0.1-20-0.8-29.9c-0.8-9.9-2.7-19.8-5.5-29.3c-2.9-9.5-6.9-18.8-12.2-27.2
				c-2.7-4.2-5.7-8.2-9-11.9C167.1,432.4,163.5,428.9,159.3,426.2z" class="st4"></path>
		</g>
		<g>
			<path d="M198.5,532c-3.6-0.7-6.9-2-10.1-3.5c-3.2-1.5-6.3-3.3-9.2-5.2c-1.5-1-2.9-2-4.3-3.1c-1.4-1-2.8-2.2-4.1-3.3
				c-1.4-1.1-2.6-2.4-3.9-3.5c-1.3-1.2-2.5-2.5-3.7-3.7c1.3,1.2,2.5,2.4,3.8,3.6c1.3,1.1,2.6,2.3,4,3.4c1.4,1.1,2.8,2.2,4.2,3.1
				c1.4,1,2.9,2,4.4,2.9c3,1.8,6.1,3.4,9.3,4.8c3.2,1.3,6.5,2.5,9.8,3L198.5,532z" class="st4"></path>
		</g>
		<g>
			<path d="M200.4,570.8c-4.4-0.6-8.5-1.9-12.5-3.5c-4-1.7-7.8-3.7-11.3-6.1c-3.5-2.5-6.9-5.2-9.8-8.3
				c-1.5-1.5-2.8-3.2-4.2-4.8c-0.7-0.8-1.3-1.7-1.9-2.6l-1.8-2.6l1.9,2.6c0.7,0.8,1.2,1.7,2,2.5c1.4,1.6,2.8,3.2,4.3,4.7
				c3,3,6.4,5.6,9.9,7.9c3.5,2.3,7.4,4.2,11.3,5.7c3.9,1.5,8.1,2.6,12.2,3L200.4,570.8z" class="st4"></path>
		</g>
		<g>
			<path d="M206.8,609.4c-4.4-0.6-8.5-1.9-12.5-3.5c-4-1.7-7.8-3.7-11.3-6.1c-3.5-2.5-6.9-5.2-9.8-8.3
				c-1.5-1.5-2.8-3.2-4.2-4.8c-0.7-0.8-1.3-1.7-1.9-2.6l-1.8-2.6l1.9,2.6c0.7,0.8,1.2,1.7,2,2.5c1.4,1.6,2.8,3.2,4.3,4.7
				c3,3,6.4,5.6,9.9,7.9c3.5,2.3,7.4,4.2,11.3,5.7c3.9,1.5,8.1,2.6,12.2,3L206.8,609.4z" class="st4"></path>
		</g>
		<g>
			<path d="M219.2,645.4c-3.4-0.6-6.6-1.8-9.6-3.2c-3-1.4-5.9-3.1-8.6-5.1c-0.7-0.5-1.3-1-2-1.5c-0.7-0.5-1.3-1-1.9-1.6
				l-1.8-1.7l-1.7-1.8c-1.2-1.2-2.2-2.5-3.2-3.8c-1-1.3-1.9-2.7-2.9-4c1,1.3,2,2.7,3,3.9c1.1,1.2,2.1,2.5,3.4,3.6l1.8,1.7l1.9,1.6
				c0.6,0.6,1.3,1,1.9,1.5c0.7,0.5,1.3,1,2,1.5c2.7,1.9,5.6,3.4,8.6,4.7c3,1.3,6.2,2.3,9.3,2.7L219.2,645.4z" class="st4"></path>
		</g>
		<g>
			<path d="M232.3,665.7c-3,0-5.9-0.3-8.8-0.9c-2.9-0.6-5.7-1.4-8.4-2.4c-1.4-0.5-2.7-1.1-4-1.7c-0.6-0.3-1.3-0.7-1.9-1
				l-1-0.5l-0.9-0.6c-2.5-1.5-4.7-3.4-6.8-5.4c2.2,1.9,4.5,3.7,7,5.1l0.9,0.5l1,0.5c0.6,0.3,1.3,0.6,1.9,0.9c1.3,0.5,2.7,1.1,4,1.5
				c2.7,0.9,5.5,1.6,8.4,2c2.8,0.4,5.7,0.6,8.5,0.5L232.3,665.7z" class="st4"></path>
		</g>
		<g>
			<path d="M247.4,683.9c-3,0-5.9-0.3-8.8-0.9c-2.9-0.6-5.7-1.4-8.4-2.4c-1.4-0.5-2.7-1.1-4-1.7c-0.6-0.3-1.3-0.7-1.9-1
				l-1-0.5l-0.9-0.6c-2.5-1.5-4.7-3.4-6.8-5.4c2.2,1.9,4.5,3.7,7,5.1l0.9,0.5l1,0.5c0.6,0.3,1.3,0.6,1.9,0.9c1.3,0.5,2.7,1.1,4,1.5
				c2.7,0.9,5.5,1.6,8.4,2c2.8,0.4,5.7,0.6,8.5,0.5L247.4,683.9z" class="st4"></path>
		</g>
		<g>
			<path d="M263.2,709.5c-3.5,0.1-6.9-0.1-10.3-0.5c-3.4-0.4-6.8-1-10.1-1.9c-3.3-0.9-6.5-2.1-9.6-3.6
				c-3-1.6-5.8-3.5-8.3-5.9c2.6,2.2,5.4,4.1,8.5,5.5c3.1,1.4,6.3,2.4,9.6,3.2c3.3,0.7,6.6,1.2,10,1.5c3.4,0.2,6.8,0.3,10.1,0.1
				L263.2,709.5z" class="st4"></path>
		</g>
		<g>
			<path d="M272.3,735.3c-3.5,0.1-6.9-0.1-10.3-0.5c-3.4-0.4-6.8-1-10.1-1.9c-3.3-0.9-6.5-2.1-9.6-3.6
				c-3-1.6-5.8-3.5-8.3-5.9c2.6,2.2,5.4,4.1,8.5,5.5c3.1,1.4,6.3,2.4,9.6,3.2c3.3,0.7,6.6,1.2,10,1.5c3.4,0.2,6.8,0.3,10.1,0.1
				L272.3,735.3z" class="st4"></path>
		</g>
		<g>
			<path d="M274.8,761.1c-3.5,0.1-6.9-0.1-10.3-0.5c-3.4-0.4-6.8-1-10.1-1.9c-3.3-0.9-6.5-2.1-9.6-3.6
				c-3-1.6-5.8-3.5-8.3-5.9c2.6,2.2,5.4,4.1,8.5,5.5c3.1,1.4,6.3,2.4,9.6,3.2c3.3,0.7,6.6,1.2,10,1.5c3.4,0.2,6.8,0.3,10.1,0.1
				L274.8,761.1z" class="st4"></path>
		</g>
		<g>
			<path d="M274.3,793.2c-3.4-0.6-6.7-1.4-10-2.4c-3.3-1-6.5-2.3-9.5-3.7c-3.1-1.5-6-3.3-8.7-5.3
				c-2.7-2.1-5.1-4.6-7.1-7.3c2.1,2.7,4.6,5,7.3,7c2.8,1.9,5.7,3.6,8.8,4.9c3.1,1.3,6.3,2.4,9.6,3.3c3.2,0.9,6.6,1.6,9.9,2
				L274.3,793.2z" class="st4"></path>
		</g>
		<g>
			<path d="M199.2,550.3c2.5-2.2,4.8-4.9,6.9-7.7c2-2.8,3.8-5.8,5.5-8.9c0.8-1.6,1.6-3.1,2.2-4.7c0.7-1.6,1.3-3.2,2-4.9
				c0.6-1.6,1.1-3.3,1.7-5c0.5-1.7,1-3.4,1.4-5.1c-0.4,1.7-0.8,3.4-1.3,5.1c-0.5,1.7-0.9,3.4-1.5,5c-0.6,1.7-1.1,3.3-1.8,5
				c-0.6,1.6-1.4,3.2-2.1,4.8c-1.5,3.2-3.2,6.3-5.2,9.2c-2,2.9-4.1,5.7-6.8,8.2L199.2,550.3z" class="st4"></path>
		</g>
		<g>
			<path d="M203.1,590.5c3.3-2.5,6.3-5.6,8.8-8.9c2.6-3.3,4.9-6.9,6.7-10.7c1.8-3.8,3.4-7.8,4.4-11.9
				c0.6-2,0.9-4.1,1.3-6.2c0.2-1,0.3-2.1,0.4-3.2l0.3-3.2l-0.2,3.2c-0.1,1.1-0.1,2.1-0.3,3.2c-0.3,2.1-0.6,4.2-1.1,6.3
				c-0.9,4.2-2.3,8.2-4.1,12.1c-1.7,3.9-4,7.6-6.5,11.1c-2.6,3.5-5.4,6.7-8.9,9.4L203.1,590.5z" class="st4"></path>
		</g>
		<g>
			<path d="M212.6,629.4c2.6-1.9,5.1-4.1,7.3-6.5c2.3-2.4,4.3-5,6.1-7.7c0.9-1.4,1.7-2.8,2.5-4.2
				c0.7-1.5,1.5-2.9,2.1-4.5c1.3-3,2.1-6.3,2.8-9.5c-0.6,3.3-1.2,6.5-2.4,9.6c-0.5,1.6-1.3,3.1-1.9,4.6c-0.8,1.5-1.5,3-2.4,4.4
				c-1.7,2.9-3.7,5.6-5.9,8.1c-2.2,2.5-4.6,4.9-7.3,7L212.6,629.4z" class="st4"></path>
		</g>
		<g>
			<path d="M226.3,656.7c2.2-1.8,4.2-4,6-6.4c1.8-2.4,3.3-4.9,4.6-7.6c1.2-2.7,2.4-5.5,3.1-8.4c0.4-1.4,0.7-2.9,1-4.4
				c0.3-1.5,0.4-3,0.6-4.4c-0.1,1.5-0.2,3-0.4,4.5c-0.2,1.5-0.4,3-0.8,4.4c-0.6,2.9-1.6,5.8-2.7,8.6c-1.2,2.8-2.7,5.4-4.4,7.9
				c-1.7,2.5-3.6,4.8-6,6.9L226.3,656.7z" class="st4"></path>
		</g>
		<g>
			<path d="M240.3,674c2.4-1.3,4.8-3,7-4.8c2.2-1.8,4.3-3.8,6.1-6c1-1.1,1.8-2.2,2.7-3.4c0.4-0.6,0.8-1.2,1.2-1.8
				l0.6-0.9l0.5-0.9c1.5-2.5,2.5-5.2,3.4-8c-0.8,2.8-1.7,5.6-3.1,8.1l-0.5,1l-0.5,0.9c-0.4,0.6-0.7,1.3-1.1,1.9
				c-0.8,1.2-1.6,2.4-2.5,3.6c-1.8,2.3-3.8,4.5-6,6.4c-2.2,2-4.5,3.7-7.1,5.3L240.3,674z" class="st4"></path>
		</g>
		<g>
			<path d="M258.7,701.2c1.8-2.1,3.5-4.5,5-6.9c1.5-2.5,2.7-5.1,3.7-7.8c0.5-1.3,0.9-2.7,1.3-4.1
				c0.2-0.7,0.3-1.4,0.5-2.1l0.2-1.1l0.2-1.1c0.5-2.8,0.5-5.7,0.5-8.6c0.2,2.9,0.3,5.8-0.1,8.7l-0.1,1.1l-0.2,1.1
				c-0.1,0.7-0.2,1.4-0.4,2.2c-0.4,1.4-0.7,2.8-1.2,4.2c-0.9,2.8-2,5.5-3.4,8.1c-1.4,2.6-2.9,5.1-4.8,7.4L258.7,701.2z" class="st4"></path>
		</g>
		<g>
			<path d="M269.5,725.4c2.2-2.5,4.2-5.2,6-8.1c1.8-2.8,3.5-5.8,4.9-8.8c1.4-3.1,2.5-6.3,3.3-9.6
				c0.7-3.3,1-6.7,0.7-10.1c0.4,3.4,0.2,6.8-0.4,10.2c-0.7,3.4-1.7,6.6-2.9,9.8c-1.3,3.2-2.9,6.2-4.6,9.2c-1.8,2.9-3.7,5.8-5.9,8.5
				L269.5,725.4z" class="st4"></path>
		</g>
		<g>
			<path d="M274.2,753.9c2.6-2.1,5.1-4.4,7.4-6.9c2.3-2.5,4.4-5.1,6.4-7.8c1.9-2.8,3.6-5.7,4.9-8.8
				c1.3-3.1,2.1-6.4,2.5-9.8c-0.2,3.4-1,6.7-2.1,10c-1.2,3.2-2.8,6.2-4.6,9.1c-1.9,2.9-3.9,5.6-6.2,8.2c-2.3,2.6-4.6,5-7.3,7.3
				L274.2,753.9z" class="st4"></path>
		</g>
		<g>
			<path d="M273.8,782.1c3-1.5,5.8-3.3,8.6-5.3c2.7-2,5.4-4.1,7.8-6.4c2.4-2.4,4.6-4.9,6.6-7.7c1.9-2.8,3.4-5.9,4.4-9.1
				c-0.9,3.3-2.3,6.4-4.1,9.3c-1.8,2.9-4,5.6-6.3,8c-2.4,2.4-5,4.7-7.7,6.8c-2.7,2.1-5.5,4-8.6,5.7L273.8,782.1z" class="st4"></path>
		</g>
	</g>
	<g>
		<defs>
			<circle r="435.7" cy="497.8" cx="513.3" id="SVGID_5_"></circle>
		</defs>
		<clipPath id="SVGID_6_">
			<use style="overflow:visible;" xlink:href="#SVGID_5_"></use>
		</clipPath>
		<g class="st5">
			<g>
				<path d="M766,538.5H249.3c-7.9,0-14.4-6.4-14.4-14.4V364.8c0-7.9,6.4-14.4,14.4-14.4H766c7.9,0,14.4,6.4,14.4,14.4
					v159.3C780.4,532.1,773.9,538.5,766,538.5z" class="st4"></path>
				<g>
					<path d="M510.5,399H288.2c-2.8,0-5-2.2-5-5v-13.5c0-2.8,2.2-5,5-5h222.4c2.8,0,5,2.2,5,5V394
						C515.5,396.8,513.3,399,510.5,399z" class="st6"></path>
					<path d="M727.1,478.4h-439c-2.8,0-5-2.2-5-5v-13.5c0-2.8,2.2-5,5-5h439c2.8,0,5,2.2,5,5v13.5
						C732.1,476.2,729.9,478.4,727.1,478.4z" class="st6"></path>
					<path d="M727.1,438.7h-439c-2.8,0-5-2.2-5-5v-13.5c0-2.8,2.2-5,5-5h439c2.8,0,5,2.2,5,5v13.5
						C732.1,436.5,729.9,438.7,727.1,438.7z" class="st6"></path>
					<path d="M727.1,518.1h-439c-2.8,0-5-2.2-5-5v-13.5c0-2.8,2.2-5,5-5h439c2.8,0,5,2.2,5,5v13.5
						C732.1,515.9,729.9,518.1,727.1,518.1z" class="st6"></path>
				</g>
				<path d="M792.6,413.3H718c-7.1,0-12.8-5.7-12.8-12.8v-74.7c0-7.1,5.7-12.8,12.8-12.8h74.7c7.1,0,12.8,5.7,12.8,12.8
					v74.7C805.5,407.5,799.7,413.3,792.6,413.3z" class="st7"></path>
				<path d="M730,358.9l14.1,14.2c0.6,0.6,1.6,0.6,2.2,0l34-34.4c0.6-0.6,1.6-0.6,2.2,0l4.9,4.9c0.6,0.6,0.6,1.6,0,2.2
					l-41.3,41.8c-0.6,0.6-1.6,0.6-2.2,0l-20.8-20.9c-0.6-0.6-0.6-1.5-0.1-2.1l4.7-5.6C728.4,358.3,729.4,358.2,730,358.9z
					 M728.9,357.7" class="st4"></path>
			</g>
			<g>
				<path d="M766,759.5H249.3c-7.9,0-14.4-6.4-14.4-14.4V585.8c0-7.9,6.4-14.4,14.4-14.4H766c7.9,0,14.4,6.4,14.4,14.4
					v159.3C780.4,753.1,773.9,759.5,766,759.5z" class="st4"></path>
				<g>
					<linearGradient y2="608.2501" x2="515.518" y1="608.2501" x1="283.1886" gradientUnits="userSpaceOnUse" id="SVGID_7_">
						<stop style="stop-color:#C7D3DD" offset="0"></stop>
						<stop style="stop-color:#B6C4CE" offset="1"></stop>
					</linearGradient>
					<path d="M510.5,620H288.2c-2.8,0-5-2.2-5-5v-13.5c0-2.8,2.2-5,5-5h222.4c2.8,0,5,2.2,5,5V615
						C515.5,617.8,513.3,620,510.5,620z" class="st8"></path>
					<linearGradient y2="687.6613" x2="732.1259" y1="687.6613" x1="283.1886" gradientUnits="userSpaceOnUse" id="SVGID_8_">
						<stop style="stop-color:#C7D3DD" offset="0"></stop>
						<stop style="stop-color:#B6C4CE" offset="1"></stop>
					</linearGradient>
					<path d="M727.1,699.4h-439c-2.8,0-5-2.2-5-5v-13.5c0-2.8,2.2-5,5-5h439c2.8,0,5,2.2,5,5v13.5
						C732.1,697.2,729.9,699.4,727.1,699.4z" class="st9"></path>
					<linearGradient y2="647.9557" x2="732.1259" y1="647.9557" x1="283.1886" gradientUnits="userSpaceOnUse" id="SVGID_9_">
						<stop style="stop-color:#C7D3DD" offset="0"></stop>
						<stop style="stop-color:#B6C4CE" offset="1"></stop>
					</linearGradient>
					<path d="M727.1,659.7h-439c-2.8,0-5-2.2-5-5v-13.5c0-2.8,2.2-5,5-5h439c2.8,0,5,2.2,5,5v13.5
						C732.1,657.5,729.9,659.7,727.1,659.7z" class="st10"></path>
					<linearGradient y2="727.3668" x2="732.1259" y1="727.3668" x1="283.1886" gradientUnits="userSpaceOnUse" id="SVGID_10_">
						<stop style="stop-color:#C7D3DD" offset="0"></stop>
						<stop style="stop-color:#B6C4CE" offset="1"></stop>
					</linearGradient>
					<path d="M727.1,739.1h-439c-2.8,0-5-2.2-5-5v-13.5c0-2.8,2.2-5,5-5h439c2.8,0,5,2.2,5,5v13.5
						C732.1,736.9,729.9,739.1,727.1,739.1z" class="st11"></path>
				</g>
			</g>
			<g>
				<path d="M766,980.5H249.3c-7.9,0-14.4-6.4-14.4-14.4V806.8c0-7.9,6.4-14.4,14.4-14.4H766c7.9,0,14.4,6.4,14.4,14.4
					v159.3C780.4,974.1,773.9,980.5,766,980.5z" class="st4"></path>
				<g>
					<linearGradient y2="829.2429" x2="515.518" y1="829.2429" x1="283.1886" gradientUnits="userSpaceOnUse" id="SVGID_11_">
						<stop style="stop-color:#C7D3DD" offset="0"></stop>
						<stop style="stop-color:#B6C4CE" offset="1"></stop>
					</linearGradient>
					<path d="M510.5,841H288.2c-2.8,0-5-2.2-5-5v-13.5c0-2.8,2.2-5,5-5h222.4c2.8,0,5,2.2,5,5V836
						C515.5,838.8,513.3,841,510.5,841z" class="st12"></path>
					<linearGradient y2="908.6539" x2="732.1259" y1="908.6539" x1="283.1886" gradientUnits="userSpaceOnUse" id="SVGID_12_">
						<stop style="stop-color:#C7D3DD" offset="0"></stop>
						<stop style="stop-color:#B6C4CE" offset="1"></stop>
					</linearGradient>
					<path d="M727.1,920.4h-439c-2.8,0-5-2.2-5-5v-13.5c0-2.8,2.2-5,5-5h439c2.8,0,5,2.2,5,5v13.5
						C732.1,918.2,729.9,920.4,727.1,920.4z" class="st13"></path>
					<linearGradient y2="868.9484" x2="732.1259" y1="868.9484" x1="283.1886" gradientUnits="userSpaceOnUse" id="SVGID_13_">
						<stop style="stop-color:#C7D3DD" offset="0"></stop>
						<stop style="stop-color:#B6C4CE" offset="1"></stop>
					</linearGradient>
					<path d="M727.1,880.7h-439c-2.8,0-5-2.2-5-5v-13.5c0-2.8,2.2-5,5-5h439c2.8,0,5,2.2,5,5v13.5
						C732.1,878.5,729.9,880.7,727.1,880.7z" class="st14"></path>
					<linearGradient y2="948.3595" x2="732.1259" y1="948.3595" x1="283.1886" gradientUnits="userSpaceOnUse" id="SVGID_14_">
						<stop style="stop-color:#C7D3DD" offset="0"></stop>
						<stop style="stop-color:#B6C4CE" offset="1"></stop>
					</linearGradient>
					<path d="M727.1,960.1h-439c-2.8,0-5-2.2-5-5v-13.5c0-2.8,2.2-5,5-5h439c2.8,0,5,2.2,5,5v13.5
						C732.1,957.9,729.9,960.1,727.1,960.1z" class="st15"></path>
				</g>
			</g>
		</g>
	</g>
	<linearGradient y2="225.9536" x2="623.0262" y1="225.9536" x1="576.2677" gradientUnits="userSpaceOnUse" id="SVGID_15_">
		<stop style="stop-color:#C7D3DD" offset="0"></stop>
		<stop style="stop-color:#B6C4CE" offset="1"></stop>
	</linearGradient>
	<circle r="23.4" cy="226" cx="599.6" class="st16"></circle>
	<linearGradient y2="233.3984" x2="931.2667" y1="233.3984" x1="888.9489" gradientUnits="userSpaceOnUse" id="SVGID_16_">
		<stop style="stop-color:#C7D3DD" offset="0"></stop>
		<stop style="stop-color:#B6C4CE" offset="1"></stop>
	</linearGradient>
	<circle r="21.2" cy="233.4" cx="910.1" class="st17"></circle>
	<linearGradient y2="488.7417" x2="1024" y1="488.7417" x1="999.7065" gradientUnits="userSpaceOnUse" id="SVGID_17_">
		<stop style="stop-color:#C7D3DD" offset="0"></stop>
		<stop style="stop-color:#B6C4CE" offset="1"></stop>
	</linearGradient>
	<circle r="12.1" cy="488.7" cx="1011.9" class="st18"></circle>
	<linearGradient y2="180.8931" x2="163.2778" y1="180.8931" x1="124.6171" gradientUnits="userSpaceOnUse" id="SVGID_18_">
		<stop style="stop-color:#C7D3DD" offset="0"></stop>
		<stop style="stop-color:#B6C4CE" offset="1"></stop>
	</linearGradient>
	<circle r="19.3" cy="180.9" cx="143.9" class="st19"></circle>
	<linearGradient y2="451.5177" x2="48.3407" y1="451.5177" x1="-1.8137" gradientUnits="userSpaceOnUse" id="SVGID_19_">
		<stop style="stop-color:#C7D3DD" offset="0"></stop>
		<stop style="stop-color:#B6C4CE" offset="1"></stop>
	</linearGradient>
	<circle r="25.1" cy="451.5" cx="23.3" class="st20"></circle>
	<linearGradient y2="426.3099" x2="72.373" y1="426.3099" x1="54.8712" gradientUnits="userSpaceOnUse" id="SVGID_20_">
		<stop style="stop-color:#C7D3DD" offset="0"></stop>
		<stop style="stop-color:#B6C4CE" offset="1"></stop>
	</linearGradient>
	<circle r="8.8" cy="426.3" cx="63.6" class="st21"></circle>
	<linearGradient y2="332.5317" x2="224.1422" y1="332.5317" x1="198.2814" gradientUnits="userSpaceOnUse" id="SVGID_21_">
		<stop style="stop-color:#C7D3DD" offset="0"></stop>
		<stop style="stop-color:#B6C4CE" offset="1"></stop>
	</linearGradient>
	<circle r="12.9" cy="332.5" cx="211.2" class="st22"></circle>
	<linearGradient y2="317.9033" x2="458.196" y1="317.9033" x1="432.3351" gradientUnits="userSpaceOnUse" id="SVGID_22_">
		<stop style="stop-color:#C7D3DD" offset="0"></stop>
		<stop style="stop-color:#B6C4CE" offset="1"></stop>
	</linearGradient>
	<circle r="12.9" cy="317.9" cx="445.3" class="st23"></circle>
	<linearGradient y2="266.5735" x2="643.9239" y1="266.5735" x1="624.5936" gradientUnits="userSpaceOnUse" id="SVGID_23_">
		<stop style="stop-color:#C7D3DD" offset="0"></stop>
		<stop style="stop-color:#B6C4CE" offset="1"></stop>
	</linearGradient>
	<circle r="9.7" cy="266.6" cx="634.3" class="st24"></circle>
</g>
</svg>
